<?xml version="1.0" encoding="UTF-8"?>
<!DOCTYPE svg PUBLIC "-//W3C//DTD SVG 1.1//EN" "http://www.w3.org/Graphics/SVG/1.1/DTD/svg11.dtd">
<!-- Creator: CorelDRAW 2021.5 -->
<svg xmlns="http://www.w3.org/2000/svg" xml:space="preserve" width="7.3898mm" height="10.7052mm" version="1.1" style="shape-rendering:geometricPrecision; text-rendering:geometricPrecision; image-rendering:optimizeQuality; fill-rule:evenodd; clip-rule:evenodd"
viewBox="0 0 38.52 55.8"
 xmlns:xlink="http://www.w3.org/1999/xlink"
 xmlns:xodm="http://www.corel.com/coreldraw/odm/2003">
 <defs>
  <style type="text/css">
   <![CDATA[
    .fil1 {fill:#7AB317;fill-rule:nonzero}
    .fil0 {fill:#A0C55F;fill-rule:nonzero}
   ]]>
  </style>
 </defs>
 <g id="Capa_x0020_1">
  <metadata id="CorelCorpID_0Corel-Layer"/>
  <g id="_2623683228240">
   <path id="Trazado_578" class="fil0" d="M32.87 8.08l0 11.22 -27.86 0 0 -15.75c0,-1.29 1.05,-2.34 2.34,-2.34l18.9 0 6.62 6.86z"/>
   <path id="Trazado_579" class="fil1" d="M27.78 13.32c0,0.48 -0.4,0.89 -0.89,0.89l-16.07 0c-0.48,0 -0.89,-0.4 -0.89,-0.89 0,-0.48 0.4,-0.89 0.89,-0.89l16.15 -0c0.4,-0.08 0.81,0.32 0.81,0.89l0 0z"/>
   <path id="Trazado_580" class="fil1" d="M18.98 8.24c0,0.48 -0.4,0.89 -0.89,0.89l-7.27 0c-0.48,0 -0.89,-0.4 -0.89,-0.97 0,-0.48 0.4,-0.89 0.89,-0.89l7.27 0c0.48,0.08 0.89,0.48 0.89,0.97z"/>
   <path id="Trazado_581" class="fil1" d="M38.28 12.68c-0.08,-0.81 -0.65,-1.7 -2.26,-1.7l-1.53 0c-0.16,0 -0.24,-0.08 -0.24,-0.24l0 -2.5c0,-0.24 -0.08,-0.48 -0.24,-0.65l-6.78 -7.27c-0.16,-0.16 -0.4,-0.32 -0.65,-0.32l-17.36 0c-2.91,0 -5.17,2.34 -5.25,5.25l0 5.49c0,0.16 -0.08,0.24 -0.24,0.24l-1.86 0c-0.57,-0.08 -1.05,0.16 -1.45,0.48 -0.32,0.32 -0.4,0.73 -0.4,1.21l0 37.39c0,3.15 2.58,5.73 5.73,5.73l27.05 0c3.15,0 5.73,-2.58 5.73,-5.73l0 -34.64 -0.24 -2.75zm-10.82 -8.72c0,-0.08 0.08,-0.16 0.16,-0.24 0.08,0 0.16,0 0.24,0.08l2.83 3.07c0.08,0.08 0.08,0.16 0,0.24 0,0.08 -0.16,0.16 -0.24,0.16l-0.65 0c-1.29,0 -2.34,-1.05 -2.34,-2.34l0 -0.97zm-21.8 1.13c0,-1.86 1.45,-3.31 3.31,-3.31l16.39 0c0.16,0 0.24,0.08 0.24,0.24l0 3.07c0,2.26 1.86,4.04 4.04,4.04l2.5 0c0.16,0 0.24,0.08 0.24,0.24l0 9.53c0,0.08 0,0.16 -0.08,0.16 -0.08,0.08 -0.08,0.08 -0.16,0.08l-26.32 0c-0.16,0 -0.24,-0.08 -0.24,-0.24l0.08 -13.81zm-4.04 7.75c0,-0.08 0.08,-0.08 0.16,-0.08l1.86 0c0.16,0 0.24,0.08 0.24,0.24l0 4.36c0,0.08 -0.08,0.24 -0.16,0.24 0,0 0,0 -0.08,0 -0.08,0 -0.16,-0.08 -0.24,-0.16l-1.78 -4.44c0,-0.08 0,-0.08 0,-0.16l0 0zm33.83 39.97c-0.73,0.73 -1.7,1.05 -2.66,1.05l-27.54 0c-0.97,0 -1.94,-0.4 -2.58,-1.21l0 0 0.08 -0.08 1.78 -3.88c0.08,-0.16 0.24,-0.32 0.48,-0.32l28.18 0c0.24,0 0.48,0.16 0.48,0.4l1.86 3.96 -0.08 0.08zm1.05 -2.02l-1.29 -2.66c-0.32,-0.89 -1.21,-1.45 -2.18,-1.45l-28.18 0c-0.89,0 -1.78,0.57 -2.1,1.37l-1.21 2.58 0 -32.78 0.65 1.61c0.32,0.89 1.13,1.45 2.02,1.45l29.39 -0c0.89,-0.08 1.7,-0.65 2.02,-1.45l0.81 -1.86 -0 33.19 0.08 0zm0.08 -37.71l-1.86 4.28c0,0.08 -0.16,0.16 -0.24,0.16l-0.08 0c-0.08,0 -0.16,-0.16 -0.16,-0.24l0 -4.28c0,-0.08 0,-0.16 0.08,-0.16 0.08,-0.08 0.08,-0.08 0.16,-0.08l1.86 0c0.16,0 0.24,0.08 0.24,0.24 0,0 0,0 0,0 0,0 0,0 0,0.08l0 0z"/>
  </g>
 </g>
</svg>
