<?xml version="1.0" encoding="UTF-8"?>
<!DOCTYPE svg PUBLIC "-//W3C//DTD SVG 1.1//EN" "http://www.w3.org/Graphics/SVG/1.1/DTD/svg11.dtd">
<!-- Creator: CorelDRAW 2021.5 -->
<svg xmlns="http://www.w3.org/2000/svg" xml:space="preserve" width="153.482mm" height="0.75mm" version="1.1" style="shape-rendering:geometricPrecision; text-rendering:geometricPrecision; image-rendering:optimizeQuality; fill-rule:evenodd; clip-rule:evenodd"
viewBox="0 0 16013.37 78.25"
 xmlns:xlink="http://www.w3.org/1999/xlink"
 xmlns:xodm="http://www.corel.com/coreldraw/odm/2003">
 <defs>
  <style type="text/css">
   <![CDATA[
    .fil1 {fill:#0B2E59}
    .fil0 {fill:#7AB317}
   ]]>
  </style>
 </defs>
 <g id="Capa_x0020_1">
  <metadata id="CorelCorpID_0Corel-Layer"/>
  <path class="fil0" d="M31.7 0l3889.77 0c17.53,0.01 31.72,5.85 31.72,13.05l-0.02 52.16c0.02,7.18 -14.17,13.02 -31.68,13.02l-3889.79 0.02c-17.49,-0.02 -31.68,-5.86 -31.68,-13.06l-0.02 -52.15c0.02,-7.19 14.21,-13.03 31.72,-13.03z"/>
  <path class="fil0" d="M4051.77 0l3889.76 0c17.53,0.01 31.72,5.85 31.72,13.05l-0.01 52.16c0.01,7.18 -14.18,13.02 -31.69,13.02l-3889.78 0.02c-17.49,-0.02 -31.68,-5.86 -31.68,-13.06l-0.03 -52.15c0.03,-7.19 14.22,-13.03 31.73,-13.03z"/>
  <path class="fil1" d="M8071.83 0l3889.76 0c17.5,0.01 31.69,5.85 31.69,13.05l0.02 52.16c-0.02,7.18 -14.21,13.02 -31.72,13.02l-3889.75 0.02c-17.52,-0.02 -31.71,-5.86 -31.71,-13.06l0 -52.15c0,-7.19 14.19,-13.03 31.7,-13.03z"/>
  <path class="fil1" d="M12091.9 0l3889.77 0c17.5,0.01 31.69,5.85 31.69,13.05l0.01 52.16c-0.01,7.18 -14.2,13.02 -31.71,13.02l-3889.76 0.02c-17.52,-0.02 -31.71,-5.86 -31.71,-13.06l0.01 -52.15c-0.01,-7.19 14.18,-13.03 31.69,-13.03z"/>
 </g>
</svg>
