<?xml version="1.0" encoding="UTF-8"?>
<!DOCTYPE svg PUBLIC "-//W3C//DTD SVG 1.1//EN" "http://www.w3.org/Graphics/SVG/1.1/DTD/svg11.dtd">
<!-- Creator: CorelDRAW 2021.5 -->
<svg xmlns="http://www.w3.org/2000/svg" xml:space="preserve" width="9.5523mm" height="8.09mm" version="1.1" style="shape-rendering:geometricPrecision; text-rendering:geometricPrecision; image-rendering:optimizeQuality; fill-rule:evenodd; clip-rule:evenodd"
viewBox="0 0 63.62 53.88"
 xmlns:xlink="http://www.w3.org/1999/xlink"
 xmlns:xodm="http://www.corel.com/coreldraw/odm/2003">
 <defs>
  <style type="text/css">
   <![CDATA[
    .fil1 {fill:#7AB317;fill-rule:nonzero}
    .fil0 {fill:#A0C55F;fill-rule:nonzero}
   ]]>
  </style>
 </defs>
 <g id="Capa_x0020_1">
  <metadata id="CorelCorpID_0Corel-Layer"/>
  <rect id="Rectángulo_51" class="fil0" x="1.55" y="1.76" width="21.76" height="10.26"/>
  <rect id="Rectángulo_52" class="fil0" x="40.51" y="1.76" width="21.76" height="10.26"/>
  <g>
   <path id="Trazado_548" class="fil1" d="M62.37 0l-61.24 0c-0.62,0 -1.14,0.52 -1.14,1.14l0 11.19c0,0.62 0.52,1.14 1.14,1.14l1.66 0 0 33.67c0,3.73 3,6.74 6.74,6.74l44.55 0c0.31,0 0.52,0 0.83,-0.1 1.87,-0.21 3.52,-1.14 4.56,-2.69 0.83,-1.14 1.35,-2.59 1.35,-4.04l0 -33.57 1.66 0c0.62,0 1.14,-0.52 1.14,-1.14l0 -11.19c-0.1,-0.62 -0.62,-1.14 -1.24,-1.14l0 0zm-37.82 2.28l14.4 0 0 22.07 -7.25 -4.87 -7.15 4.77 0 -21.97zm-22.28 0l20 0 0 8.91 -20 0 0 -8.91zm56.26 44.86c0,1.55 -0.73,2.9 -2.07,3.73l-0.1 0c-0.73,0.41 -1.45,0.62 -2.28,0.62l-44.55 -0c-1.45,0 -2.9,-0.73 -3.73,-1.97 -0.1,-0.21 -0.21,-0.31 -0.31,-0.52 -0.31,-0.62 -0.41,-1.24 -0.41,-1.86l0 -33.67 17.2 0 0 12.54c0,0.73 0.21,1.14 0.52,1.35 0.73,0.1 1.35,0 1.86,-0.52l6.94 -4.66 6.63 4.46c0.31,0.21 0.62,0.41 0.93,0.62 0.1,0.1 1.24,0.62 1.66,0 0.31,-0.41 0.31,-0.52 0.31,-1.45l0 -12.33 17.2 0 0.21 33.67zm2.69 -35.95l-20 0 0 -8.91 20 0 0 8.91z"/>
  </g>
  <path id="Trazado_549" class="fil1" d="M25.9 40.41l0 2.8c0.1,0.62 -0.41,1.24 -1.04,1.24 -0.62,0.1 -1.24,-0.41 -1.24,-1.04 0,0 0,0 0,0l0 0c0,-0.1 0,-0.1 0,-0.21l0 -2.8c0.1,-0.62 0.62,-1.04 1.24,-1.04 0.52,0.1 0.93,0.52 1.04,1.04z"/>
  <path id="Trazado_550" class="fil1" d="M20.31 40.41l0 2.8c0.1,0.62 -0.41,1.24 -1.04,1.24 -0.62,0.1 -1.24,-0.41 -1.24,-1.04 0,0 0,0 0,0l0 0c0,-0.1 0,-0.1 0,-0.21l0 -2.8c0.1,-0.62 0.62,-1.04 1.24,-1.04 0.52,0.1 0.93,0.52 1.04,1.04z"/>
  <path id="Trazado_551" class="fil1" d="M14.71 40.41l0 2.8c0,0.62 -0.52,1.14 -1.14,1.14 -0.62,0 -1.14,-0.52 -1.14,-1.14l0 -2.8c0,-0.62 0.52,-1.14 1.14,-1.14 0.62,0 1.14,0.52 1.14,1.14z"/>
 </g>
</svg>
