<?xml version="1.0" encoding="UTF-8"?>
<!DOCTYPE svg PUBLIC "-//W3C//DTD SVG 1.1//EN" "http://www.w3.org/Graphics/SVG/1.1/DTD/svg11.dtd">
<!-- Creator: CorelDRAW 2021.5 -->
<svg xmlns="http://www.w3.org/2000/svg" xml:space="preserve" width="9.1259mm" height="9.1259mm" version="1.1" style="shape-rendering:geometricPrecision; text-rendering:geometricPrecision; image-rendering:optimizeQuality; fill-rule:evenodd; clip-rule:evenodd"
viewBox="0 0 134.31 134.31"
 xmlns:xlink="http://www.w3.org/1999/xlink"
 xmlns:xodm="http://www.corel.com/coreldraw/odm/2003">
 <defs>
  <style type="text/css">
   <![CDATA[
    .fil1 {fill:#FEFEFE}
    .fil0 {fill:#7AB317}
   ]]>
  </style>
 </defs>
 <g id="Capa_x0020_1">
  <metadata id="CorelCorpID_0Corel-Layer"/>
  <circle class="fil0" cx="67.15" cy="67.15" r="67.16"/>
  <path class="fil1" d="M27.95 80.57c0.29,6.67 0.58,10.88 3.59,15.99 1.33,2.26 2.76,3.62 4.64,5.18 6.37,5.31 16.1,5.06 24.45,5.05 6.53,-0 13.13,0.1 19.65,-0.1 6.17,-0.2 11.4,-0.76 15.98,-3.59 10.42,-6.43 10.25,-17.58 10.24,-29.09 -0,-6.53 0.1,-13.13 -0.1,-19.65 -0.3,-9.67 -1.46,-15.45 -8.23,-21.17 -6.28,-5.31 -16.27,-5.05 -24.45,-5.05 -6.53,0 -13.13,-0.1 -19.65,0.1 -6.14,0.19 -11.44,0.76 -15.99,3.59 -10.44,6.51 -10.25,17.52 -10.24,29.08 0,6.47 -0.18,13.21 0.1,19.64z"/>
  <path class="fil0" d="M73.06 63.08l-6.67 -0 -0.16 11.75 6.38 0.12 0.39 32.49c3.03,0.81 10.01,0.5 13.36,0.26l0.08 -32.93 9.79 -0.09 0.86 -11.72 -10.35 -0.05c-0.12,-11.63 1.23,-10.24 10.29,-10.33l0.39 -10.9c-20.28,0.17 -24.71,0.13 -24.37,21.42z"/>
 </g>
</svg>
