<?xml version="1.0" encoding="UTF-8"?>
<!DOCTYPE svg PUBLIC "-//W3C//DTD SVG 1.1//EN" "http://www.w3.org/Graphics/SVG/1.1/DTD/svg11.dtd">
<!-- Creator: CorelDRAW 2021.5 -->
<svg xmlns="http://www.w3.org/2000/svg" xml:space="preserve" width="9.126mm" height="9.1259mm" version="1.1" style="shape-rendering:geometricPrecision; text-rendering:geometricPrecision; image-rendering:optimizeQuality; fill-rule:evenodd; clip-rule:evenodd"
viewBox="0 0 518.16 518.15"
 xmlns:xlink="http://www.w3.org/1999/xlink"
 xmlns:xodm="http://www.corel.com/coreldraw/odm/2003">
 <defs>
  <style type="text/css">
   <![CDATA[
    .fil1 {fill:#FEFEFE}
    .fil0 {fill:#7AB317}
   ]]>
  </style>
 </defs>
 <g id="Capa_x0020_1">
  <metadata id="CorelCorpID_0Corel-Layer"/>
  <circle class="fil0" cx="259.08" cy="259.08" r="259.08"/>
  <path class="fil1" d="M105.49 310.5c1.13,25.72 2.22,41.97 13.85,61.7 5.14,8.72 10.66,13.98 17.9,20.01 24.59,20.5 62.1,19.5 94.31,19.49 25.18,-0.02 50.67,0.39 75.79,-0.4 23.81,-0.76 43.99,-2.93 61.67,-13.85 40.2,-24.82 39.53,-67.83 39.5,-112.21 -0.01,-25.19 0.38,-50.65 -0.39,-75.8 -1.16,-37.31 -5.64,-59.61 -31.74,-81.68 -24.22,-20.49 -62.77,-19.5 -94.32,-19.48 -25.18,0.01 -50.66,-0.41 -75.79,0.39 -23.71,0.76 -44.13,2.91 -61.67,13.85 -40.29,25.11 -39.53,67.6 -39.5,112.21 0.01,24.95 -0.69,50.95 0.39,75.78zm27.03 -35.23l0 -30.58c0,-43.69 -4.95,-93.34 42.85,-105.39 20.2,-5.09 93.1,-3.59 116.69,-3.45 33.32,0 60.14,1.57 75.95,22.23 15.19,19.84 13.12,57.22 13.09,85.94 -0.02,23.84 0.74,63.68 -1.52,85.05 -1.83,17.25 -6.9,28.53 -15.99,37.67 -19.94,20.03 -55.98,17.52 -90.15,17.52l-33.24 0c-50.32,0 -100.28,4.06 -106.2,-55.82 -1.67,-16.82 -1.47,-35.97 -1.47,-53.18z"/>
  <path class="fil1" d="M333.72 161.25c-23.12,5.44 -15.89,40.29 7.61,35.73 8.86,-1.71 16.78,-10.46 14.3,-21.87 -1.89,-8.69 -10.76,-16.49 -21.91,-13.87z"/>
  <path class="fil1" d="M250.98 209.92c29.25,-3.78 52.8,18.51 55.92,43.86 3.63,29.58 -18.26,53.14 -43.84,56.26 -29.68,3.63 -53.17,-18.23 -56.32,-43.87 -3.7,-30.1 18.33,-52.9 44.25,-56.25zm-2.9 -27.38c-39.86,4.64 -74,40.13 -68.72,86.41 4.54,39.77 40.67,73.81 86.43,68.49 39.72,-4.62 73.88,-40.56 68.48,-86.42 -4.68,-39.8 -40.59,-73.78 -86.18,-68.47z"/>
 </g>
</svg>
