<?xml version="1.0" encoding="UTF-8"?>
<!DOCTYPE svg PUBLIC "-//W3C//DTD SVG 1.1//EN" "http://www.w3.org/Graphics/SVG/1.1/DTD/svg11.dtd">
<!-- Creator: CorelDRAW 2021.5 -->
<svg xmlns="http://www.w3.org/2000/svg" xml:space="preserve" width="12.9928mm" height="11.9915mm" version="1.1" style="shape-rendering:geometricPrecision; text-rendering:geometricPrecision; image-rendering:optimizeQuality; fill-rule:evenodd; clip-rule:evenodd"
viewBox="0 0 115.4 106.51"
 xmlns:xlink="http://www.w3.org/1999/xlink"
 xmlns:xodm="http://www.corel.com/coreldraw/odm/2003">
 <defs>
  <style type="text/css">
   <![CDATA[
    .fil1 {fill:#7AB317;fill-rule:nonzero}
    .fil0 {fill:#A0C55F;fill-rule:nonzero}
   ]]>
  </style>
 </defs>
 <g id="Capa_x0020_1">
  <metadata id="CorelCorpID_0Corel-Layer"/>
  <g id="_2623828262432">
   <polygon id="Trazado_562" class="fil0" points="68.32,37.27 50.91,50.6 42.38,44.67 34.74,50.6 16.44,37.27 16.44,1.38 68.32,1.38 " data-name="Grupo 318"/>
   <path id="Trazado_563" class="fil1" d="M85.27 27.04c-0,-0.09 -0.02,-0.17 -0.05,-0.25 -0.02,-0.15 -0.07,-0.3 -0.13,-0.44l-0.03 -0.04 -0.03 -0.03c0,0 -0.03,-0.05 -0.07,-0.12l-0.03 -0.03c-0.06,-0.08 -0.12,-0.14 -0.19,-0.22l-13.55 -10.54 0 -10.82c-0,-2.5 -2.02,-4.52 -4.52,-4.54l-48 0c-2.5,0.01 -4.52,2.04 -4.52,4.54l0 10.81 -0.04 0.03 -13.53 10.49c-0.06,0.07 -0.12,0.14 -0.17,0.22l-0.03 0.03c-0.03,0.04 -0.06,0.07 -0.06,0.09l-0.03 0.03 -0.09 0.13 -0.04 0.09c-0,0.03 -0.02,0.05 -0.03,0.07 -0.02,0.06 -0.04,0.12 -0.06,0.17l-0.02 0.05c-0.02,0.09 -0.03,0.17 -0.05,0.26l0 48.13c-0.01,0.1 -0.01,0.2 -0.01,0.3 0,1.15 0.46,2.25 1.27,3.06 0.84,0.75 1.93,1.16 3.05,1.16 0.01,0 0.03,0 0.04,0l34.97 -0.02c0,0 0.01,0 0.01,0 0.94,0 1.71,-0.76 1.72,-1.71l0 -0.06c-0,-0.95 -0.78,-1.72 -1.73,-1.72 -0,0 -0,0 -0,0l-0 0 -33.63 0.11 0.25 -0.21 36.03 -27.95c0.19,-0.16 0.42,-0.25 0.67,-0.25 0.25,0 0.48,0.09 0.67,0.25l6.59 5.13c0.29,0.22 0.65,0.34 1.02,0.34 0.46,0 0.91,-0.19 1.22,-0.53l29.75 -23.17 0 24.9c0.03,0.91 0.78,1.64 1.69,1.64 0.92,0 1.67,-0.73 1.7,-1.64l-0.02 -27.74zm-71.12 -7.39l0 14.28 -9.21 -7.16 9.21 -7.12zm-10.74 54.1l0 -43.84 0.18 0.13 28.04 21.85 -28.22 21.86zm64.38 -37.15l-0.04 0.03 -16.82 13.08 -0.07 -0.05 -5.48 -4.24c-0.79,-0.58 -1.74,-0.9 -2.72,-0.9 -0.98,0 -1.94,0.32 -2.72,0.9l-5.56 4.28 -0.07 -0.04 -16.78 -13.07 0 -32.05c0,-0 0,-0 0,-0 0,-0.62 0.5,-1.12 1.12,-1.12 0,0 0,0 0,0l48.01 0c0,0 0,0 0,0 0.62,0 1.13,0.5 1.13,1.13l0.01 32.06zm12.47 -9.73l-9.08 7.07 0 -14.28 9.19 7.12 -0.1 0.1z" data-name="Grupo 287"/>
   <g data-name="Trazado 564">
    <path id="Trazado_564" class="fil1" d="M114.87 60.78c-0.97,-1.87 -2.8,-3.15 -4.89,-3.41 -0.56,-0.09 -1.13,-0.13 -1.71,-0.13 -1.72,0 -3.41,0.4 -4.95,1.15l-18 8.44 -0.04 -0.01 -19.32 -7.56c-2.56,-0.98 -4.62,-0.94 -6.1,0.13 -1.19,0.97 -1.88,2.43 -1.88,3.97 0,0.04 0,0.09 0,0.13 0.02,0.48 0.26,0.92 0.65,1.2l12.64 8.68 -0.18 0.09 -6.69 3.17 -0.04 -0.02 -12.46 -3.16c-0.11,-0.03 -0.23,-0.04 -0.35,-0.04 -0.55,0 -1.06,0.3 -1.33,0.78l-3.07 5.6c-0.12,0.22 -0.18,0.46 -0.18,0.71 0,0.18 0.03,0.35 0.09,0.52 0.13,0.4 0.44,0.72 0.83,0.87l17.36 9.33c0.17,0.06 0.34,0.09 0.52,0.09 0.04,0.01 0.08,0.01 0.12,0.01 0.19,0 0.37,-0.05 0.53,-0.14l12.31 -5.73 -1.78 18.5c-0,0.04 -0.01,0.09 -0.01,0.13 0,0.43 0.18,0.85 0.51,1.14 0.94,0.79 2.12,1.23 3.35,1.26 0.02,0 0.04,0 0.07,0 0.32,0 0.65,-0.04 0.96,-0.12 1.75,-0.44 3.09,-1.98 4,-4.58l7.88 -23.35 0.05 -0.03 15.54 -7.26c2.58,-1.09 4.62,-3.15 5.69,-5.73 0.27,-0.7 0.4,-1.44 0.4,-2.19 0,-0.85 -0.18,-1.7 -0.53,-2.48l-0 0zm-53.74 1.97l0.02 -0.07c0.09,-0.31 0.27,-0.59 0.52,-0.79 0.56,-0.42 1.72,-0.33 3.23,0.24l16.64 6.47 -7.03 3.3 -0.06 -0.04 -13.31 -9.11zm50.5 2.63c-0.89,1.33 -2.15,2.39 -3.61,3.05l-13.68 6.41 -2.71 1.39c-0.35,0.17 -0.62,0.47 -0.76,0.84l-7.91 23.76c-0.53,1.53 -1.18,2.45 -1.85,2.62 -0.04,0.01 -0.08,0.02 -0.12,0.02 -0.01,0 -0.02,-0 -0.03,-0 -0.31,-0.02 -0.6,-0.1 -0.87,-0.25l-0.08 -0.04 0.02 -0.08 2.51 -22.55 -2.98 1.29 -13.47 6.29 -15.69 -8.09 1.91 -3.32 0.07 0.03 11.79 2.93c0.11,0.02 0.23,0.04 0.35,0.04 0.23,0 0.45,-0.05 0.66,-0.14l39.44 -18.41c1.14,-0.56 2.39,-0.86 3.67,-0.86 0.4,0 0.81,0.03 1.21,0.09 1.09,0.1 2.07,0.72 2.62,1.67 0.14,0.39 0.21,0.79 0.21,1.2 0,0.76 -0.25,1.49 -0.7,2.1l0 -0.01z"/>
   </g>
   <g data-name="Trazado 565">
    <path id="Trazado_565" class="fil1" d="M58.43 26.87c-0,0.9 -0.74,1.63 -1.64,1.63 -0,0 -0,0 -0,0l-28.24 0c-0.01,0 -0.01,0 -0.02,0 -0.88,0 -1.59,-0.71 -1.61,-1.58l0 -0.05c0,-0.9 0.73,-1.63 1.63,-1.63l28.24 0c0,0 0.01,0 0.01,0 0.9,0 1.63,0.73 1.64,1.63l-0 -0zm0 0l0 0 0 0z"/>
   </g>
   <g data-name="Trazado 566">
    <path id="Trazado_566" class="fil1" d="M43.05 18c-0,0.91 -0.74,1.64 -1.64,1.65l-12.71 -0c-0.9,0 -1.64,-0.73 -1.64,-1.64 0,-0.9 0.73,-1.64 1.64,-1.64l12.72 0c0,0 0.01,0 0.01,0 0.9,0 1.63,0.73 1.64,1.63l-0.01 -0zm0 0l0 0 0 0z"/>
   </g>
  </g>
 </g>
</svg>
