<?xml version="1.0" encoding="UTF-8"?>
<!DOCTYPE svg PUBLIC "-//W3C//DTD SVG 1.1//EN" "http://www.w3.org/Graphics/SVG/1.1/DTD/svg11.dtd">
<!-- Creator: CorelDRAW 2021.5 -->
<svg xmlns="http://www.w3.org/2000/svg" xml:space="preserve" width="12.8962mm" height="2.8908mm" version="1.1" style="shape-rendering:geometricPrecision; text-rendering:geometricPrecision; image-rendering:optimizeQuality; fill-rule:evenodd; clip-rule:evenodd"
viewBox="0 0 96.51 21.63"
 xmlns:xlink="http://www.w3.org/1999/xlink"
 xmlns:xodm="http://www.corel.com/coreldraw/odm/2003">
 <defs>
  <style type="text/css">
   <![CDATA[
    .fil1 {fill:#A0C55F}
    .fil2 {fill:#FEFEFE;fill-rule:nonzero}
    .fil0 {fill:#A0C55F;fill-rule:nonzero}
   ]]>
  </style>
 </defs>
 <g id="__x0023_Layer_x0020_1">
  <metadata id="CorelCorpID_0Corel-Layer"/>
  <g id="_2695712179744">
   <g>
    <path class="fil0" d="M58.52 0.48l3.38 0c0.7,0.04 1.35,0.5 1.6,1.16 0.16,0.44 0.29,0.88 0.45,1.32 1.24,0 2.48,-0 3.72,0 0.75,0 1.46,0.52 1.7,1.22 0.17,0.45 0.1,0.95 0.11,1.42 -0.01,0.25 0.05,0.52 -0.08,0.75 -0.11,0.21 -0.35,0.33 -0.58,0.32 -5.69,-0 -11.38,0 -17.06,0 -0.25,-0.01 -0.53,-0.01 -0.72,-0.19 -0.17,-0.17 -0.15,-0.42 -0.15,-0.64 0.01,-0.42 -0.01,-0.83 0.01,-1.25 0.07,-0.67 0.53,-1.27 1.16,-1.51 0.23,-0.09 0.48,-0.14 0.73,-0.13 1.22,-0 2.43,0 3.65,-0 0.15,-0.43 0.28,-0.87 0.44,-1.3 0.25,-0.67 0.92,-1.15 1.64,-1.18zm-0.08 1.27l0 0c-0.19,0.06 -0.35,0.21 -0.41,0.4 -0.09,0.27 -0.18,0.54 -0.27,0.81 1.63,0 3.26,0 4.89,0 -0.09,-0.28 -0.18,-0.56 -0.28,-0.84 -0.09,-0.24 -0.34,-0.41 -0.59,-0.4 -0.99,-0 -1.98,0 -2.97,-0 -0.12,0 -0.24,-0.01 -0.36,0.03z"/>
   </g>
   <g>
    <path class="fil0" d="M52.29 8c5.27,0 10.54,0 15.81,0 -0.33,3.97 -0.66,7.93 -0.98,11.9 -0.03,0.39 -0.18,0.78 -0.44,1.08 -0.32,0.39 -0.81,0.62 -1.31,0.66l-10.36 0c-0.68,-0.04 -1.31,-0.47 -1.58,-1.09 -0.17,-0.36 -0.17,-0.76 -0.2,-1.14 -0.32,-3.8 -0.63,-7.6 -0.94,-11.4zm4 1.27l0 0c-0.26,0.06 -0.45,0.32 -0.43,0.59 -0,2.89 -0,5.78 0,8.68 -0,0.18 0.07,0.37 0.22,0.48 0.25,0.19 0.64,0.17 0.86,-0.06 0.12,-0.12 0.16,-0.3 0.16,-0.46 -0,-2.89 0,-5.79 -0,-8.68 0.01,-0.4 -0.44,-0.67 -0.8,-0.55zm3.72 0l0 0c-0.26,0.06 -0.45,0.32 -0.43,0.59 -0,2.89 -0,5.79 0,8.68 -0.02,0.31 0.23,0.58 0.53,0.6 0.34,0.06 0.71,-0.21 0.7,-0.56 0,-2.92 0,-5.84 0,-8.76 0.01,-0.4 -0.44,-0.67 -0.8,-0.54zm3.79 -0.02l0 0c-0.32,0.05 -0.54,0.37 -0.5,0.69 0,2.87 0,5.73 0,8.6 -0,0.18 0.07,0.37 0.22,0.48 0.25,0.19 0.65,0.17 0.86,-0.06 0.12,-0.12 0.16,-0.3 0.16,-0.46 -0,-2.88 0,-5.76 -0,-8.64 0.01,-0.37 -0.37,-0.69 -0.74,-0.61z"/>
   </g>
  </g>
 </g>
 <g id="__x0023_Layer_x0020_1_0">
  <metadata id="CorelCorpID_1Corel-Layer"/>
  <g id="_2695712184208">
   <path class="fil0" d="M1.75 1.59c0.4,-0.4 0.96,-0.64 1.52,-0.65 2.77,-0 5.54,0 8.31,-0 0.06,-0 0.09,0.06 0.13,0.09 1.71,1.71 3.43,3.42 5.14,5.13 -0,4.44 0,8.87 -0,13.31 -0,0.7 -0.37,1.39 -0.96,1.78 -0.36,0.25 -0.8,0.39 -1.24,0.39 -3.79,0 -7.57,0 -11.35,0 -0.5,-0 -1.01,-0.18 -1.39,-0.51 -0.41,-0.34 -0.7,-0.84 -0.77,-1.37 -0.03,-0.18 -0.02,-0.35 -0.02,-0.53 -0,-0.26 0,-0.52 -0,-0.78 -0.18,-0 -0.36,0.01 -0.53,-0.06 -0.34,-0.12 -0.58,-0.46 -0.57,-0.82 -0,-1.8 -0,-3.6 0,-5.4 -0.01,-0.39 0.27,-0.75 0.65,-0.85 0.15,-0.04 0.3,-0.03 0.46,-0.04 -0,-2.7 0,-5.39 -0,-8.09 -0.02,-0.59 0.22,-1.19 0.64,-1.6zm0.71 1.52l0 0c-0.01,2.72 0,5.45 -0,8.17 3.52,0 7.05,0 10.57,0 0.24,0 0.49,0.1 0.65,0.28 0.15,0.16 0.24,0.38 0.24,0.6 0,1.79 0,3.58 0,5.37 0,0.27 -0.12,0.54 -0.34,0.71 -0.16,0.12 -0.35,0.19 -0.55,0.19 -3.52,-0 -7.04,0 -10.57,-0 -0,0.35 -0,0.7 0,1.05 0.02,0.43 0.41,0.8 0.84,0.79 3.74,0 7.48,0 11.22,0 0.11,0 0.21,0 0.32,-0.02 0.29,-0.06 0.53,-0.28 0.62,-0.56 0.07,-0.2 0.04,-0.41 0.04,-0.61 -0.01,-2.72 -0.01,-5.43 -0.02,-8.15 -0,-1.42 -0,-2.84 -0.01,-4.26 -0.94,0 -1.88,0.01 -2.82,0.01 -0.43,0 -0.85,-0.18 -1.14,-0.5 -0.25,-0.28 -0.4,-0.65 -0.4,-1.03 0,-0.96 -0,-1.92 0,-2.88 -0.03,-0 -0.07,-0 -0.1,-0.01 -2.58,0.01 -5.17,0 -7.75,0.01 -0.43,0.01 -0.8,0.39 -0.81,0.82zm-0.13 10.04l0 0c0,1.23 0,2.45 0,3.68 0.28,0 0.56,0 0.84,0 -0,-0.44 0,-0.89 -0,-1.33 0.5,0.04 1.04,-0 1.44,-0.33 0.31,-0.25 0.43,-0.66 0.4,-1.05 -0.03,-0.33 -0.2,-0.64 -0.48,-0.82 -0.29,-0.18 -0.63,-0.23 -0.96,-0.24 -0.41,-0 -0.83,0.01 -1.23,0.08zm3.22 -0l0 0c-0,1.22 0,2.44 -0,3.67 0.25,0.03 0.51,0.05 0.76,0.05 0.52,0.01 1.06,-0.03 1.54,-0.25 0.3,-0.14 0.56,-0.37 0.73,-0.66 0.25,-0.43 0.31,-0.95 0.24,-1.44 -0.06,-0.42 -0.27,-0.82 -0.62,-1.07 -0.43,-0.32 -0.97,-0.39 -1.49,-0.39 -0.39,-0 -0.78,0.02 -1.17,0.08zm3.85 -0.05l0 0c0,1.24 0,2.49 0,3.73 0.28,0 0.56,0 0.85,0 0,-0.5 0,-1 -0,-1.5 0.45,0 0.89,-0 1.34,0 0.01,-0.23 0,-0.46 0,-0.69 -0.45,0 -0.89,-0 -1.34,0 -0,-0.29 -0,-0.57 0,-0.86 0.48,0.01 0.96,0 1.43,0 -0,-0.23 -0,-0.46 -0,-0.69 -0.76,-0 -1.52,0 -2.28,-0z"/>
  </g>
  <path class="fil0" d="M3.17 13.73c0.26,-0.04 0.55,-0.06 0.79,0.08 0.32,0.2 0.29,0.74 -0.03,0.93 -0.22,0.14 -0.5,0.13 -0.76,0.1 0,-0.37 -0,-0.74 0,-1.11z"/>
  <path class="fil0" d="M6.4 13.75c0.37,-0.06 0.77,-0.05 1.1,0.16 0.27,0.17 0.42,0.47 0.45,0.78 0.03,0.33 0,0.67 -0.15,0.97 -0.12,0.23 -0.33,0.4 -0.57,0.48 -0.26,0.09 -0.55,0.09 -0.82,0.07 -0,-0.82 -0,-1.63 0,-2.45z"/>
  <path class="fil1" d="M33.42 4.28c4.28,-0.84 5.44,5.73 1.24,6.52 -4.32,0.81 -5.64,-5.66 -1.24,-6.52zm0.58 17.35c0.61,-0.66 2.96,-4.54 3.67,-5.64 0.63,-0.96 1.18,-1.92 1.77,-2.87 0.48,-0.78 1.31,-2 1.62,-2.88 1.9,-5.33 -2.05,-10.25 -7.06,-10.25 -5.04,0 -9.04,5 -7.02,10.35 0.33,0.87 1.2,2.16 1.69,2.95 0.62,1.02 1.11,1.84 1.72,2.78 0.66,1.02 3.03,4.93 3.61,5.55z"/>
 </g>
 <g id="__x0023_Layer_x0020_1_1">
  <metadata id="CorelCorpID_2Corel-Layer"/>
  <path class="fil2" d="M80.34 10.65l0 0c-0.24,0.06 -0.42,0.3 -0.4,0.55 -0,2.62 -0,5.24 0,7.85 -0.01,0.2 0.09,0.39 0.26,0.49 0.14,0.09 0.32,0.07 0.49,0.07 4.52,0 9.04,-0 13.56,0 0.15,-0 0.32,0.02 0.46,-0.06 0.18,-0.09 0.3,-0.29 0.28,-0.5 -0,-2.63 0,-5.26 -0,-7.9 0.01,-0.29 -0.26,-0.54 -0.54,-0.52 -4.66,0 -9.31,0 -13.97,0 -0.05,0 -0.1,0.01 -0.15,0.01z"/>
  <path class="fil2" d="M93.01 0.39l0.17 0c0.61,0.03 1.21,0.34 1.56,0.84 0.17,0.22 0.26,0.48 0.34,0.75 0.17,0.57 0.35,1.14 0.52,1.72 0.15,0.49 0.14,1.03 -0.09,1.49 -0.24,0.54 -0.73,0.94 -1.3,1.1 -3.11,0.95 -6.21,1.9 -9.32,2.84 1.22,0.02 2.45,0 3.67,0.01 1.98,0 3.97,-0 5.95,0 0.84,0.01 1.63,0.6 1.87,1.41 0.09,0.26 0.11,0.54 0.1,0.82 -0,2.42 -0,4.83 -0,7.25 -0,0.35 0.03,0.72 -0.09,1.06 -0.18,0.64 -0.7,1.17 -1.34,1.36 -0.13,0.04 -0.27,0.07 -0.4,0.09l-14.41 0c-0.39,-0.06 -0.77,-0.2 -1.08,-0.45 -0.49,-0.38 -0.77,-1 -0.76,-1.61 0,-2.62 -0,-5.24 0,-7.86 -0,-0.48 0.16,-0.94 0.44,-1.32 -0.25,-0.24 -0.43,-0.54 -0.53,-0.87 -0.19,-0.61 -0.37,-1.22 -0.56,-1.83 -0.1,-0.32 -0.14,-0.67 -0.09,-1 0.1,-0.66 0.55,-1.25 1.16,-1.51 0.29,-0.13 0.59,-0.2 0.89,-0.3 4.23,-1.29 8.46,-2.58 12.69,-3.87 0.19,-0.06 0.38,-0.1 0.58,-0.12zm0 1.52l0 0c-0.27,0.07 -0.54,0.16 -0.8,0.24 -4.14,1.26 -8.28,2.52 -12.42,3.78 -0.18,0.06 -0.39,0.1 -0.51,0.26 -0.11,0.14 -0.12,0.33 -0.07,0.49 0.18,0.59 0.36,1.17 0.54,1.76 0.04,0.14 0.09,0.28 0.21,0.37 0.14,0.11 0.33,0.14 0.5,0.08 4.46,-1.36 8.92,-2.72 13.38,-4.08 0.22,-0.06 0.38,-0.29 0.38,-0.51 -0.01,-0.1 -0.04,-0.2 -0.07,-0.29 -0.18,-0.59 -0.36,-1.18 -0.54,-1.77 -0.07,-0.24 -0.34,-0.4 -0.58,-0.34z"/>
  <path class="fil2" d="M83.2 12.83c1.04,-0.02 2.07,-0 3.11,-0.01 1.69,0 3.38,0 5.06,0 0.18,0 0.36,-0.01 0.53,0.04 0.25,0.08 0.44,0.3 0.5,0.55 0.08,0.32 -0.09,0.68 -0.38,0.83 -0.18,0.11 -0.41,0.09 -0.61,0.09 -2.7,-0 -5.4,0 -8.1,-0 -0.18,0 -0.37,-0.04 -0.51,-0.16 -0.25,-0.19 -0.36,-0.54 -0.26,-0.83 0.09,-0.28 0.36,-0.49 0.65,-0.51z"/>
  <path class="fil2" d="M83.25 15.91c2.76,-0.01 5.53,0 8.29,-0 0.18,-0 0.37,0.02 0.52,0.12 0.27,0.16 0.42,0.5 0.34,0.81 -0.05,0.22 -0.21,0.42 -0.42,0.51 -0.19,0.09 -0.4,0.07 -0.6,0.07 -2.67,0 -5.35,-0 -8.02,0 -0.19,0 -0.4,-0.04 -0.55,-0.16 -0.25,-0.19 -0.36,-0.54 -0.25,-0.84 0.1,-0.29 0.39,-0.51 0.7,-0.51z"/>
 </g>
</svg>
