<?xml version="1.0" encoding="UTF-8"?>
<!DOCTYPE svg PUBLIC "-//W3C//DTD SVG 1.1//EN" "http://www.w3.org/Graphics/SVG/1.1/DTD/svg11.dtd">
<!-- Creator: CorelDRAW 2021.5 -->
<svg xmlns="http://www.w3.org/2000/svg" xml:space="preserve" width="10.0429mm" height="9.4706mm" version="1.1" style="shape-rendering:geometricPrecision; text-rendering:geometricPrecision; image-rendering:optimizeQuality; fill-rule:evenodd; clip-rule:evenodd"
viewBox="0 0 69.27 65.32"
 xmlns:xlink="http://www.w3.org/1999/xlink"
 xmlns:xodm="http://www.corel.com/coreldraw/odm/2003">
 <defs>
  <style type="text/css">
   <![CDATA[
    .fil1 {fill:#7AB317;fill-rule:nonzero}
    .fil0 {fill:#A0C55F;fill-rule:nonzero}
   ]]>
  </style>
 </defs>
 <g id="Capa_x0020_1">
  <metadata id="CorelCorpID_0Corel-Layer"/>
  <g id="_2623834513248">
   <path id="Exclusión_1" class="fil0" d="M19.18 63.67l-6.74 0 0 -8.54 4.49 -2.92 0 -5.17 -4.49 -3.37 0 -4.72 4.49 -3.82 0 -4.49 -5.62 -4.95 0 -4.05 5.62 -3.6 0 -5.17c-0.14,-0.05 -3.41,-1.27 -4.49,-3.82 -1.11,-2.6 -0.01,-6.7 0,-6.74l6.74 0 2.48 4.49 4.95 0 3.36 -4.49 4.04 0 4.05 4.49 3.82 0 2.47 -4.49 4.72 0 3.15 4.49 4.49 0 2.93 -4.49 6.97 0 0 6.74 -4.27 3.82 0 5.17 4.27 3.6 0 5.17 -4.27 2.47 0 5.84 4.27 3.82 0 4.72 -4.27 3.37 0 5.17 4.27 4.04 0 7.42 -6.97 0 -2.93 -5.17 -4.49 0 -3.15 5.17 -4.72 0 -2.47 -5.17 -4.95 0 -2.92 5.17 -4.94 0 -2.47 -5.17 -4.94 0 -2.47 5.17zm7.59 -50.27l0 0 0 38.62 27.9 0 0 -38.62 -27.9 0 0 -0z" data-name="Grupo 4192"/>
   <g data-name="Grupo 4225">
    <path id="Trazado_9-2" class="fil1" d="M66.61 2.65l0 5.87c-3,1.03 -5.02,3.85 -5.02,7.02 0,3.17 2.02,5.99 5.01,7.02l0 3.15c-2.98,0.88 -5.02,3.61 -5.02,6.72 0,0.1 0,0.2 0.01,0.3 -0,0.09 -0.01,0.19 -0.01,0.29 0,3.08 2.05,5.79 5.02,6.61l0 3.15c-3,1.03 -5.02,3.85 -5.02,7.02 0,3.17 2.02,5.99 5.02,7.02l0 5.87 -5.14 0c-0.22,-3.23 -2.91,-5.73 -6.14,-5.73 -3.23,0 -5.92,2.5 -6.14,5.73l-2.76 0c-0.39,-3.14 -2.98,-5.56 -6.14,-5.73l0 0c-3.16,0.17 -5.75,2.59 -6.14,5.73l-2.76 0c-0.22,-3.23 -2.91,-5.73 -6.14,-5.73 -3.23,0 -5.92,2.5 -6.14,5.73l-5.14 0 0 -5.87c3,-1.03 5.01,-3.85 5.01,-7.02 0,-3.17 -2.02,-5.99 -5.01,-7.02l0 -3.04c3,-1.03 5.01,-3.85 5.01,-7.02 0,-3.17 -2.02,-5.99 -5.01,-7.02l0 -3.15c3,-1.03 5.01,-3.85 5.01,-7.02 0,-3.17 -2.01,-5.99 -5.01,-7.02l0 -5.87 5.14 0c0.22,3.23 2.91,5.73 6.14,5.73 3.23,0 5.92,-2.5 6.14,-5.73l2.76 0c0.22,3.23 2.91,5.73 6.14,5.73 3.23,0 5.92,-2.5 6.14,-5.73l2.76 0c0.22,3.23 2.91,5.73 6.14,5.73 3.23,0 5.92,-2.5 6.14,-5.73l5.14 0 0 0zm-0 -2.65l-5.14 0c-1.28,0 -2.38,0.92 -2.6,2.18 -0.04,1.93 -1.61,3.47 -3.53,3.47 -1.93,0 -3.5,-1.54 -3.53,-3.47l0 0c-0.23,-1.26 -1.32,-2.18 -2.61,-2.18l-2.76 0c-1.28,0 -2.38,0.92 -2.6,2.18 0,0.02 0,0.04 0,0.06 0,1.95 -1.58,3.53 -3.53,3.53 -1.95,0 -3.53,-1.58 -3.53,-3.53 0,-0.02 0,-0.04 0,-0.06l0 0c-0.22,-1.26 -1.32,-2.18 -2.6,-2.18l-2.76 0c-1.28,0 -2.38,0.92 -2.6,2.18 -0.03,1.93 -1.61,3.47 -3.53,3.47 -1.93,0 -3.5,-1.54 -3.53,-3.47l0 0c-0.22,-1.26 -1.32,-2.18 -2.6,-2.18l-5.14 0c0,0 -0,0 -0,0 -1.46,0 -2.65,1.18 -2.65,2.65 0,0 0,0 0,0l-0 0 0 5.87c0,1.23 0.85,2.29 2.05,2.57 1.8,0.74 2.97,2.5 2.97,4.44 0,1.94 -1.17,3.7 -2.97,4.44 -1.2,0.28 -2.05,1.35 -2.05,2.58l0 3.15c0,1.23 0.85,2.3 2.05,2.57 1.8,0.74 2.97,2.5 2.97,4.44 0,1.94 -1.17,3.7 -2.97,4.44 -1.2,0.28 -2.04,1.35 -2.05,2.58l0 3.04c0,1.17 0.77,2.2 1.89,2.54 1.88,0.7 3.12,2.49 3.12,4.49 0,1.94 -1.17,3.69 -2.97,4.43 -1.2,0.28 -2.05,1.35 -2.05,2.58l0 5.87c-0,1.46 1.18,2.65 2.65,2.65l5.14 0c1.28,-0 2.38,-0.92 2.61,-2.18 0,-1.95 1.58,-3.53 3.53,-3.53 1.95,0 3.53,1.58 3.53,3.53l0 0c0.23,1.26 1.32,2.18 2.6,2.18l2.76 0c1.28,-0 2.38,-0.92 2.61,-2.18 0,-1.95 1.58,-3.53 3.53,-3.53 1.95,0 3.53,1.58 3.53,3.53l0 0c0.23,1.26 1.32,2.18 2.61,2.18l2.76 0c1.28,-0 2.38,-0.92 2.6,-2.18 0.03,-1.93 1.61,-3.47 3.53,-3.47 1.93,0 3.5,1.54 3.53,3.47l0 0c0.22,1.26 1.32,2.18 2.6,2.18l5.14 0c1.46,-0 2.65,-1.19 2.65,-2.65l0 0 0 -5.87c-0,-1.23 -0.85,-2.3 -2.05,-2.58 -1.8,-0.74 -2.97,-2.5 -2.97,-4.44 0,-1.94 1.17,-3.7 2.97,-4.44 1.2,-0.28 2.04,-1.35 2.05,-2.58l0 -3.15c-0,-1.23 -0.85,-2.3 -2.05,-2.57 -1.77,-0.55 -2.98,-2.18 -2.98,-4.04 0,-0.1 0,-0.19 0.01,-0.28 -0.01,-0.08 -0.01,-0.17 -0.01,-0.26 0,-1.88 1.19,-3.56 2.97,-4.18 1.2,-0.28 2.04,-1.35 2.05,-2.58l0 -3.15c-0,-1.23 -0.85,-2.3 -2.05,-2.57 -1.8,-0.74 -2.97,-2.5 -2.97,-4.44 0,-1.94 1.17,-3.7 2.97,-4.44 1.2,-0.28 2.04,-1.34 2.05,-2.57l0 -5.87c0,-1.46 -1.19,-2.65 -2.65,-2.65l0 0 -0.01 -0z"/>
   </g>
   <path id="Trazado_11" class="fil1" d="M37.06 35.21c-0.04,0 -0.09,0 -0.13,0 -1.49,0 -2.96,-0.45 -4.19,-1.29 -0.82,-0.56 -1.8,-0.86 -2.8,-0.86 -1,0 -1.97,0.3 -2.8,0.86 -1.28,0.84 -2.79,1.29 -4.32,1.29 -1.53,0 -3.04,-0.45 -4.32,-1.28 -0.82,-0.56 -1.8,-0.86 -2.79,-0.86 -1,0 -1.97,0.3 -2.79,0.86 -1.28,0.84 -2.79,1.29 -4.32,1.29 -1.53,0 -3.04,-0.45 -4.32,-1.28 -0.78,-0.56 -1.71,-0.86 -2.67,-0.86 -0.04,0 -0.08,0 -0.13,0 -0.82,0 -1.48,-0.66 -1.48,-1.48 0,-0.82 0.66,-1.48 1.48,-1.48 0.04,-0 0.09,-0 0.13,-0 1.49,0 2.95,0.45 4.19,1.29 0.82,0.56 1.8,0.86 2.79,0.86 1,0 1.97,-0.3 2.79,-0.86 1.28,-0.84 2.79,-1.29 4.32,-1.29 1.53,0 3.04,0.45 4.32,1.29 0.82,0.56 1.8,0.86 2.8,0.86 1,0 1.97,-0.3 2.8,-0.86 1.28,-0.84 2.79,-1.28 4.32,-1.28 1.53,0 3.04,0.45 4.32,1.28 0.78,0.56 1.71,0.86 2.67,0.86 0.04,0 0.08,-0 0.13,-0 0.82,0 1.48,0.66 1.48,1.48 0,0.82 -0.66,1.48 -1.48,1.48l-0 0z" data-name="Grupo 7-2"/>
   <path id="Trazado_12" class="fil1" d="M37.06 43.8c-0.04,-0 -0.09,0 -0.13,0 -1.49,0 -2.96,-0.45 -4.19,-1.29 -0.82,-0.56 -1.8,-0.86 -2.8,-0.86 -1,0 -1.97,0.3 -2.8,0.86 -1.28,0.84 -2.79,1.29 -4.32,1.29 -1.53,0 -3.04,-0.45 -4.32,-1.28 -0.82,-0.56 -1.8,-0.86 -2.79,-0.86 -1,0 -1.97,0.3 -2.79,0.86 -1.28,0.84 -2.79,1.28 -4.32,1.28 -1.53,0 -3.04,-0.45 -4.32,-1.29 -0.78,-0.56 -1.71,-0.86 -2.67,-0.86 -0.04,0 -0.09,0 -0.13,0 -0.82,0 -1.48,-0.66 -1.48,-1.48 0,-0.82 0.66,-1.48 1.48,-1.48 0.04,-0 0.09,-0 0.13,-0 1.49,0 2.95,0.45 4.19,1.29 0.82,0.56 1.8,0.86 2.79,0.86 1,0 1.97,-0.3 2.79,-0.86 1.28,-0.84 2.79,-1.28 4.32,-1.28 1.53,0 3.04,0.45 4.32,1.28 0.82,0.56 1.8,0.86 2.8,0.86 1,0 1.97,-0.3 2.8,-0.86 1.29,-0.84 2.79,-1.28 4.32,-1.28 1.54,0 3.04,0.45 4.32,1.28 0.78,0.56 1.71,0.86 2.67,0.86 0.04,0 0.08,0 0.13,-0 0.82,0 1.48,0.66 1.48,1.48 0,0.82 -0.66,1.48 -1.48,1.48l0 0z" data-name="Grupo 5-2"/>
   <path id="Trazado_13" class="fil1" d="M37.06 26.63c-0.04,0 -0.09,0 -0.13,0 -1.49,0 -2.96,-0.45 -4.19,-1.29 -0.82,-0.56 -1.8,-0.86 -2.8,-0.86 -1,0 -1.97,0.3 -2.8,0.86 -1.28,0.84 -2.79,1.28 -4.32,1.28 -1.53,0 -3.04,-0.45 -4.32,-1.28 -0.82,-0.56 -1.8,-0.86 -2.79,-0.86 -1,0 -1.97,0.3 -2.79,0.86 -1.28,0.84 -2.79,1.29 -4.32,1.29 -1.53,0 -3.04,-0.45 -4.32,-1.29 -0.78,-0.56 -1.71,-0.86 -2.67,-0.86 -0.04,0 -0.08,0 -0.13,0 -0.82,0 -1.48,-0.66 -1.48,-1.48 0,-0.82 0.66,-1.48 1.48,-1.48 0.04,0 0.09,-0 0.13,-0 1.49,0 2.95,0.45 4.19,1.29 0.82,0.56 1.8,0.86 2.79,0.86 1,0 1.97,-0.3 2.79,-0.86 1.28,-0.84 2.79,-1.29 4.32,-1.29 1.53,0 3.04,0.45 4.32,1.28 0.82,0.56 1.8,0.86 2.8,0.86 1,0 1.97,-0.3 2.8,-0.86 1.29,-0.84 2.79,-1.28 4.33,-1.28 1.53,0 3.04,0.45 4.32,1.28 0.78,0.56 1.71,0.86 2.67,0.86 0.04,0 0.09,0 0.13,-0 0.82,0 1.48,0.66 1.48,1.48 0,0.82 -0.66,1.48 -1.48,1.48l-0 0z" data-name="Grupo 6-2"/>
   <path id="Trazado_10" class="fil1" d="M55.19 52.86l-29.81 0 0 -40.37 29.81 0 0 40.37zm-27.16 -2.65l24.51 0 0 -35.09 -24.51 0 0 35.09z" data-name="Grupo 3-2"/>
  </g>
 </g>
</svg>
