<?xml version="1.0" encoding="UTF-8"?>
<!DOCTYPE svg PUBLIC "-//W3C//DTD SVG 1.1//EN" "http://www.w3.org/Graphics/SVG/1.1/DTD/svg11.dtd">
<!-- Creator: CorelDRAW 2021.5 -->
<svg xmlns="http://www.w3.org/2000/svg" xml:space="preserve" width="6.3754mm" height="6.3747mm" version="1.1" style="shape-rendering:geometricPrecision; text-rendering:geometricPrecision; image-rendering:optimizeQuality; fill-rule:evenodd; clip-rule:evenodd"
viewBox="0 0 28.95 28.95"
 xmlns:xlink="http://www.w3.org/1999/xlink"
 xmlns:xodm="http://www.corel.com/coreldraw/odm/2003">
 <defs>
  <style type="text/css">
   <![CDATA[
    .fil0 {fill:#A0C55F}
   ]]>
  </style>
 </defs>
 <g id="Capa_x0020_1">
  <metadata id="CorelCorpID_0Corel-Layer"/>
  <path class="fil0" d="M7.24 16.28l14.47 0 0 10.86 -14.47 0 0 -10.86zm16.28 -5.6c0.25,-1.11 1.04,-1.8 2.07,-1.62 1.47,0.25 1.77,1.99 1.46,2.1 0.06,0.61 -0.8,1.47 -1.41,1.41 -0.1,0.1 -0.11,0.1 -0.31,0.1 -0.21,0 -0.22,0 -0.31,-0.1 -0.45,0.05 -0.92,-0.37 -1.09,-0.6 -0.28,-0.36 -0.4,-0.69 -0.4,-1.29zm-23.52 -1.36l0 0.85 0 0.85 0 0.85 0 0.85 0 0.85 0 0.85 0 0.85 0 0.85 0 0.85 0 0.85 0 0.85 0 0.85 0.03 0.93c0.14,0.12 0.28,0.53 0.5,0.75 0.21,0.21 0.63,0.36 0.75,0.5l4.15 0.03 0 4.81c-0,1.4 0.07,0.79 0.14,1.44 0.14,0.11 0.17,0.23 0.28,0.35 0.19,0.22 0.43,0.41 0.72,0.51 0.15,0.06 0.31,0.06 0.42,0.13l14.98 0c0.14,-0.08 0.45,-0.12 0.69,-0.26 0.27,-0.16 0.34,-0.32 0.56,-0.45 0.03,-0.12 -0.02,-0.01 0.08,-0.2 0.06,-0.11 0.02,-0.04 0.08,-0.11 0.03,-0.1 0.04,-0.19 0.08,-0.3 0.08,-0.23 0.01,-0.09 0.1,-0.18l-0.03 -5.74 3.93 0.03c0.12,-0.12 0.04,-0.05 0.23,-0.12 0.1,-0.04 0.13,-0.04 0.21,-0.07 0.19,-0.08 0.24,-0.15 0.42,-0.21l0.18 -0.19c0.2,-0.35 0.37,-0.5 0.44,-1.03l0.02 -9.88c-0.01,-1.05 0.13,-1.72 -0.47,-2.41 -0.55,-0.63 -1.23,-0.58 -2.24,-0.58l-22.67 0c-0.82,0 -1.99,-0.14 -2.62,0.21 -0.64,0.36 -0.94,0.95 -0.94,1.88z"/>
  <path class="fil0" d="M21.97 0l-14.98 0c-0.14,0.08 -0.4,0.09 -0.61,0.21 -0.62,0.34 -0.95,0.94 -0.94,1.71 0,1.17 0,2.34 0,3.51l1.81 0 0 -3.62 14.47 0 0 3.62 1.81 0c0,-1.17 -0,-2.34 0,-3.51 0.01,-1.68 -1.37,-1.81 -1.56,-1.92z"/>
  <polygon class="fil0" points="9.05,19.9 19.9,19.9 19.9,18.09 9.05,18.09 "/>
  <polygon class="fil0" points="9.05,23.52 18.09,23.52 18.09,21.71 9.05,21.71 "/>
 </g>
</svg>
