<?xml version="1.0" encoding="UTF-8"?>
<!DOCTYPE svg PUBLIC "-//W3C//DTD SVG 1.1//EN" "http://www.w3.org/Graphics/SVG/1.1/DTD/svg11.dtd">
<!-- Creator: CorelDRAW 2021.5 -->
<svg xmlns="http://www.w3.org/2000/svg" xml:space="preserve" width="9.1259mm" height="9.1259mm" version="1.1" style="shape-rendering:geometricPrecision; text-rendering:geometricPrecision; image-rendering:optimizeQuality; fill-rule:evenodd; clip-rule:evenodd"
viewBox="0 0 78.14 78.14"
 xmlns:xlink="http://www.w3.org/1999/xlink"
 xmlns:xodm="http://www.corel.com/coreldraw/odm/2003">
 <defs>
  <style type="text/css">
   <![CDATA[
    .fil1 {fill:#FEFEFE}
    .fil0 {fill:#7AB317}
   ]]>
  </style>
 </defs>
 <g id="Capa_x0020_1">
  <metadata id="CorelCorpID_0Corel-Layer"/>
  <circle class="fil0" cx="39.07" cy="39.07" r="39.07"/>
  <path class="fil1" d="M23.63 21.64l5.88 0.01c6.37,8.71 13.44,17.87 19.87,26.57 0.95,1.28 6.34,8.24 6.6,9.03 -1.4,0.01 -2.8,-0.01 -4.2,0 -2.25,0.02 -1.75,-0.17 -2.81,-1.54l-10.93 -14.6c-2.47,-3.24 -4.83,-6.39 -7.25,-9.72 -0.79,-1.08 -7.04,-9.14 -7.15,-9.77zm20.31 14.47c0.41,-0.95 12.1,-13.07 13.83,-15.1 0.35,-0.41 0.56,-0.65 0.94,-1.03 0.48,-0.48 0.71,-0.57 0.87,-1.16 -1.1,-0.02 -3.2,-0.32 -3.92,0.25 -1.05,0.82 -12.69,14.15 -13.6,14.56l-8.41 -11.19c-0.78,-1.02 -2.06,-2.98 -2.79,-3.62 -0.13,-0.05 -11.91,-0.11 -12.89,0.07 0.18,0.6 7.37,9.97 8.37,11.35 2.54,3.51 6.21,8 8.43,11.3 -0.33,0.62 -1.5,1.71 -2.06,2.34 -1.84,2.07 -14.65,15.59 -14.85,16.23 1.23,0.05 3.33,0.29 4.04,-0.35 1.51,-1.37 8.23,-9.12 10.44,-11.31 0.73,-0.73 3.62,-4.14 4.29,-4.42l12.05 16.08 12.98 0.01c-0.14,-0.7 -11.19,-15.16 -13.28,-17.98l-4.44 -6.04z"/>
  <path class="fil0" d="M29.5 21.65l-5.88 -0.01c0.11,0.62 6.36,8.69 7.15,9.77 2.42,3.32 4.78,6.47 7.25,9.72l10.93 14.6c1.06,1.38 0.57,1.57 2.81,1.54 1.4,-0.01 2.8,0.01 4.2,-0 -0.26,-0.79 -5.66,-7.75 -6.6,-9.03 -6.42,-8.71 -13.49,-17.87 -19.87,-26.57z"/>
 </g>
</svg>
