<?xml version="1.0" encoding="UTF-8"?>
<!DOCTYPE svg PUBLIC "-//W3C//DTD SVG 1.1//EN" "http://www.w3.org/Graphics/SVG/1.1/DTD/svg11.dtd">
<!-- Creator: CorelDRAW 2021.5 -->
<svg xmlns="http://www.w3.org/2000/svg" xml:space="preserve" width="9.1259mm" height="9.1259mm" version="1.1" style="shape-rendering:geometricPrecision; text-rendering:geometricPrecision; image-rendering:optimizeQuality; fill-rule:evenodd; clip-rule:evenodd"
viewBox="0 0 58.03 58.03"
 xmlns:xlink="http://www.w3.org/1999/xlink"
 xmlns:xodm="http://www.corel.com/coreldraw/odm/2003">
 <defs>
  <style type="text/css">
   <![CDATA[
    .fil1 {fill:#FEFEFE}
    .fil0 {fill:#7AB317}
    .fil3 {fill:#FEFEFE;fill-rule:nonzero}
    .fil2 {fill:#7AB317;fill-rule:nonzero}
   ]]>
  </style>
 </defs>
 <g id="Capa_x0020_1">
  <metadata id="CorelCorpID_0Corel-Layer"/>
  <g id="_2623514693776">
   <circle class="fil0" cx="29.01" cy="29.01" r="29.01"/>
   <path class="fil1" d="M12.07 34.8c0.13,2.88 0.25,4.7 1.55,6.91 0.58,0.98 1.19,1.57 2,2.24 2.75,2.3 6.96,2.18 10.56,2.18 2.82,-0 5.67,0.04 8.49,-0.04 2.67,-0.09 4.93,-0.33 6.91,-1.55 4.5,-2.78 4.43,-7.6 4.42,-12.57 -0,-2.82 0.04,-5.67 -0.04,-8.49 -0.13,-4.18 -0.63,-6.68 -3.56,-9.15 -2.71,-2.29 -7.03,-2.18 -10.56,-2.18 -2.82,0 -5.67,-0.05 -8.49,0.04 -2.65,0.08 -4.94,0.33 -6.91,1.55 -4.51,2.81 -4.43,7.57 -4.42,12.57 0,2.79 -0.08,5.71 0.04,8.49z"/>
   <path id="path10" class="fil2" d="M26.68 24.75c-0.34,-0.23 -0.58,-0.58 -0.72,-1.08 -0.14,-0.48 -0.21,-1.14 -0.21,-1.93l0 -1.09c0,-0.81 0.09,-1.46 0.24,-1.96 0.17,-0.5 0.43,-0.85 0.77,-1.08 0.36,-0.23 0.81,-0.34 1.38,-0.34 0.55,0 1.01,0.11 1.35,0.34 0.34,0.23 0.58,0.6 0.74,1.08 0.16,0.48 0.24,1.14 0.24,1.96l0 1.09c0,0.81 -0.07,1.45 -0.23,1.95 -0.16,0.48 -0.4,0.85 -0.74,1.08 -0.34,0.23 -0.81,0.34 -1.39,0.34 -0.61,-0.01 -1.08,-0.13 -1.42,-0.36zm1.92 -1.18c0.1,-0.24 0.14,-0.65 0.14,-1.21l0 -2.36c0,-0.54 -0.04,-0.94 -0.14,-1.19 -0.1,-0.26 -0.26,-0.37 -0.5,-0.37 -0.23,0 -0.4,0.13 -0.48,0.37 -0.1,0.26 -0.14,0.65 -0.14,1.19l0 2.36c0,0.55 0.04,0.97 0.14,1.21 0.09,0.24 0.26,0.37 0.5,0.37 0.21,0 0.38,-0.13 0.48,-0.37z" inkscape:connector-curvature="0"/>
   <path id="path14" class="fil2" d="M22.53 21.61l-1.93 -7.01 1.69 0 0.68 3.17c0.17,0.78 0.3,1.45 0.38,2l0.04 0c0.06,-0.4 0.18,-1.05 0.38,-1.99l0.71 -3.18 1.69 0 -1.96 7.01 0 3.37 -1.68 0 0 -3.37 -0.01 0z" inkscape:connector-curvature="0"/>
   <path id="path16" class="fil2" d="M35.95 17.4l0 7.58 -1.34 0 -0.14 -0.92 -0.04 0c-0.36,0.7 -0.91,1.05 -1.63,1.05 -0.5,0 -0.87,-0.17 -1.11,-0.5 -0.24,-0.33 -0.36,-0.84 -0.36,-1.55l0 -5.66 1.71 0 0 5.56c0,0.34 0.04,0.58 0.11,0.72 0.07,0.14 0.2,0.21 0.37,0.21 0.14,0 0.28,-0.04 0.43,-0.14 0.14,-0.09 0.24,-0.2 0.3,-0.34l0 -6.01 1.71 0z" inkscape:connector-curvature="0"/>
   <rect class="fil0" x="17.47" y="26.61" width="22.77" height="16.65" rx="1.86" ry="1.86"/>
   <path id="path12" class="fil3" d="M36.27 37.09l0 0.39c0,0.49 0.01,0.87 0.04,1.12 0.03,0.25 0.09,0.44 0.19,0.54 0.09,0.12 0.23,0.17 0.44,0.17 0.26,0 0.44,-0.1 0.54,-0.31 0.1,-0.2 0.15,-0.54 0.16,-1.02l1.5 0.09c0.01,0.07 0.01,0.16 0.01,0.28 0,0.71 -0.19,1.25 -0.58,1.6 -0.39,0.35 -0.94,0.52 -1.66,0.52 -0.86,0 -1.45,-0.28 -1.8,-0.81 -0.35,-0.54 -0.52,-1.37 -0.52,-2.5l0 -1.35c0,-1.16 0.17,-2.01 0.54,-2.54 0.36,-0.54 0.97,-0.8 1.83,-0.8 0.6,0 1.06,0.12 1.38,0.33 0.32,0.22 0.54,0.57 0.67,1.02 0.13,0.46 0.19,1.1 0.19,1.92l0 1.32 -2.92 0 0 0.03zm0.22 -3.26c-0.09,0.12 -0.15,0.29 -0.17,0.54 -0.03,0.25 -0.04,0.63 -0.04,1.13l0 0.55 1.28 0 0 -0.55c0,-0.49 -0.01,-0.87 -0.04,-1.13 -0.03,-0.26 -0.1,-0.44 -0.19,-0.54 -0.09,-0.1 -0.23,-0.16 -0.41,-0.16 -0.19,0 -0.33,0.06 -0.42,0.16l0 0z" inkscape:connector-curvature="0"/>
   <path id="path18" class="fil3" d="M27.87 32.64l0 7.75 -1.37 0 -0.15 -0.94 -0.04 0c-0.36,0.71 -0.93,1.08 -1.67,1.08 -0.51,0 -0.89,-0.17 -1.13,-0.51 -0.25,-0.33 -0.36,-0.86 -0.36,-1.58l0 -5.79 1.74 0 0 5.68c0,0.35 0.04,0.6 0.12,0.74 0.07,0.14 0.2,0.22 0.38,0.22 0.14,0 0.29,-0.04 0.44,-0.14 0.15,-0.09 0.25,-0.2 0.31,-0.35l0 -6.15 1.74 0z" inkscape:connector-curvature="0"/>
   <polygon id="path20" class="fil3" points="23.67,31.18 21.94,31.18 21.94,40.38 20.24,40.38 20.24,31.2 18.51,31.2 18.51,29.8 23.67,29.8 " inkscape:connector-curvature="0"/>
   <path id="path22" class="fil3" d="M33.64 33.87c-0.1,-0.49 -0.28,-0.84 -0.51,-1.06 -0.23,-0.22 -0.57,-0.33 -0.97,-0.33 -0.32,0 -0.63,0.09 -0.9,0.28 -0.28,0.17 -0.49,0.42 -0.64,0.71l-0.01 0 0 -4.08 -1.69 0 0 11 1.44 0 0.17 -0.73 0.04 0c0.13,0.26 0.33,0.46 0.61,0.63 0.28,0.14 0.57,0.23 0.9,0.23 0.6,0 1.02,-0.28 1.29,-0.81 0.28,-0.54 0.42,-1.4 0.42,-2.54l0 -1.22c0,-0.9 -0.06,-1.57 -0.16,-2.06l0 0zm-1.6 3.15c0,0.57 -0.03,1 -0.07,1.32 -0.04,0.32 -0.13,0.55 -0.23,0.68 -0.12,0.13 -0.26,0.2 -0.44,0.2 -0.14,0 -0.28,-0.03 -0.39,-0.1 -0.12,-0.07 -0.22,-0.17 -0.29,-0.31l0 -4.39c0.06,-0.2 0.16,-0.38 0.31,-0.52 0.15,-0.13 0.31,-0.2 0.47,-0.2 0.17,0 0.32,0.07 0.41,0.2 0.1,0.15 0.16,0.38 0.2,0.7 0.04,0.33 0.06,0.8 0.06,1.4l0 1.02 -0.01 0z" inkscape:connector-curvature="0"/>
  </g>
 </g>
</svg>
