<?xml version="1.0" encoding="UTF-8"?>
<!DOCTYPE svg PUBLIC "-//W3C//DTD SVG 1.1//EN" "http://www.w3.org/Graphics/SVG/1.1/DTD/svg11.dtd">
<!-- Creator: CorelDRAW 2021.5 -->
<svg xmlns="http://www.w3.org/2000/svg" xml:space="preserve" width="9.1242mm" height="9.1242mm" version="1.1" style="shape-rendering:geometricPrecision; text-rendering:geometricPrecision; image-rendering:optimizeQuality; fill-rule:evenodd; clip-rule:evenodd"
viewBox="0 0 85.53 85.53"
 xmlns:xlink="http://www.w3.org/1999/xlink"
 xmlns:xodm="http://www.corel.com/coreldraw/odm/2003">
 <defs>
  <style type="text/css">
   <![CDATA[
    .fil0 {fill:#7AB317}
    .fil1 {fill:#FEFEFE}
    .fil2 {fill:#7AB317;fill-rule:nonzero}
    .fil3 {fill:#FEFEFE;fill-rule:nonzero}
   ]]>
  </style>
 </defs>
 <g id="Capa_x0020_1">
  <metadata id="CorelCorpID_0Corel-Layer"/>
  <circle class="fil0" cx="42.76" cy="42.76" r="42.76"/>
  <path class="fil1" d="M17.79 51.3c0.19,4.25 0.37,6.93 2.29,10.19 0.85,1.44 1.75,2.31 2.95,3.3 4.05,3.39 10.26,3.21 15.57,3.21 4.16,0 8.36,0.06 12.52,-0.06 3.94,-0.13 7.27,-0.49 10.19,-2.29 6.63,-4.1 6.53,-11.2 6.52,-18.53 0,-4.16 0.06,-8.36 -0.06,-12.52 -0.19,-6.16 -0.93,-9.85 -5.25,-13.49 -3.99,-3.38 -10.36,-3.21 -15.57,-3.21 -4.16,0 -8.36,-0.07 -12.52,0.06 -3.91,0.12 -7.28,0.49 -10.19,2.29 -6.65,4.14 -6.53,11.16 -6.52,18.53 0,4.11 -0.12,8.42 0.06,12.52l0.01 -0z"/>
  <path id="path10" class="fil2" d="M39.33 36.48c-0.5,-0.34 -0.85,-0.85 -1.06,-1.59 -0.21,-0.71 -0.31,-1.68 -0.31,-2.84l0 -1.61c0,-1.19 0.13,-2.15 0.35,-2.89 0.25,-0.74 0.63,-1.25 1.14,-1.59 0.53,-0.34 1.19,-0.5 2.03,-0.5 0.81,0 1.49,0.16 1.99,0.5 0.5,0.34 0.85,0.88 1.09,1.59 0.24,0.71 0.35,1.68 0.35,2.89l0 1.61c0,1.19 -0.1,2.14 -0.34,2.87 -0.24,0.71 -0.59,1.25 -1.09,1.59 -0.5,0.34 -1.19,0.5 -2.05,0.5 -0.9,-0.01 -1.59,-0.19 -2.09,-0.53l-0.01 -0zm2.83 -1.74c0.15,-0.35 0.21,-0.96 0.21,-1.78l0 -3.48c0,-0.8 -0.06,-1.39 -0.21,-1.75 -0.15,-0.38 -0.38,-0.55 -0.74,-0.55 -0.34,0 -0.59,0.19 -0.71,0.55 -0.15,0.38 -0.21,0.96 -0.21,1.75l0 3.48c0,0.81 0.06,1.43 0.21,1.78 0.13,0.35 0.38,0.55 0.74,0.55 0.31,0 0.56,-0.19 0.71,-0.55z" inkscape:connector-curvature="0"/>
  <path id="path14" class="fil2" d="M33.21 31.85l-2.84 -10.33 2.49 0 1 4.67c0.25,1.15 0.44,2.14 0.56,2.95l0.06 0c0.09,-0.59 0.27,-1.55 0.56,-2.93l1.05 -4.69 2.49 0 -2.89 10.33 0 4.97 -2.48 0 0 -4.97 -0.01 0 0.01 0z" inkscape:connector-curvature="0"/>
  <path id="path16" class="fil2" d="M52.99 25.65l0 11.17 -1.97 0 -0.21 -1.36 -0.06 0c-0.53,1.03 -1.34,1.55 -2.4,1.55 -0.74,0 -1.28,-0.25 -1.64,-0.74 -0.35,-0.49 -0.53,-1.24 -0.53,-2.29l0 -8.34 2.52 0 0 8.2c0,0.5 0.06,0.85 0.16,1.06 0.1,0.21 0.3,0.31 0.55,0.31 0.21,0 0.41,-0.06 0.63,-0.21 0.21,-0.13 0.35,-0.3 0.44,-0.5l0 -8.86 2.52 0 -0.01 0z" inkscape:connector-curvature="0"/>
  <path class="fil0" d="M28.49 39.23l28.08 0c1.51,0 2.74,1.23 2.74,2.74l0 19.06c0,1.51 -1.23,2.74 -2.74,2.74l-28.08 0c-1.51,-0 -2.74,-1.23 -2.74,-2.74l-0 -19.06c0,-1.51 1.23,-2.74 2.74,-2.74z"/>
  <path id="path12" class="fil3" d="M53.46 54.67l0 0.57c0,0.72 0.01,1.28 0.06,1.65 0.04,0.37 0.13,0.65 0.28,0.8 0.13,0.18 0.34,0.25 0.65,0.25 0.38,0 0.65,-0.15 0.8,-0.46 0.15,-0.3 0.22,-0.8 0.24,-1.5l2.21 0.13c0.01,0.1 0.01,0.24 0.01,0.41 0,1.05 -0.28,1.84 -0.85,2.36 -0.57,0.52 -1.39,0.77 -2.45,0.77 -1.27,0 -2.14,-0.41 -2.65,-1.19 -0.52,-0.8 -0.77,-2.02 -0.77,-3.69l0 -1.99c0,-1.71 0.25,-2.96 0.8,-3.74 0.53,-0.8 1.43,-1.18 2.7,-1.18 0.88,0 1.56,0.18 2.03,0.49 0.47,0.32 0.8,0.84 0.99,1.5 0.19,0.68 0.28,1.62 0.28,2.83l0 1.95 -4.3 0 0 0.04 -0.01 0zm0.32 -4.81c-0.13,0.18 -0.22,0.43 -0.25,0.8 -0.04,0.37 -0.06,0.93 -0.06,1.67l0 0.81 1.89 0 0 -0.81c0,-0.72 -0.01,-1.28 -0.06,-1.67 -0.04,-0.38 -0.15,-0.65 -0.28,-0.8 -0.13,-0.15 -0.34,-0.24 -0.6,-0.24 -0.28,0 -0.49,0.09 -0.62,0.24l0 0 -0.01 0z" inkscape:connector-curvature="0"/>
  <path id="path18" class="fil3" d="M41.08 48.11l0 11.42 -2.02 0 -0.22 -1.39 -0.06 0c-0.53,1.05 -1.37,1.59 -2.46,1.59 -0.75,0 -1.31,-0.25 -1.67,-0.75 -0.37,-0.49 -0.53,-1.27 -0.53,-2.33l0 -8.53 2.56 0 0 8.37c0,0.52 0.06,0.88 0.18,1.09 0.1,0.21 0.3,0.32 0.56,0.32 0.21,0 0.43,-0.06 0.65,-0.21 0.22,-0.13 0.37,-0.3 0.46,-0.52l0 -9.07 2.56 0 -0.02 -0.01z" inkscape:connector-curvature="0"/>
  <polygon id="path20" class="fil3" points="34.89,45.96 32.34,45.96 32.34,59.52 29.83,59.52 29.83,45.99 27.29,45.99 27.29,43.93 34.89,43.93 " inkscape:connector-curvature="0"/>
  <path id="path22" class="fil3" d="M49.59 49.93c-0.15,-0.72 -0.41,-1.24 -0.75,-1.56 -0.34,-0.32 -0.84,-0.49 -1.43,-0.49 -0.47,0 -0.93,0.13 -1.33,0.41 -0.41,0.25 -0.72,0.62 -0.94,1.05l-0.01 0 0 -6.01 -2.49 0 0 16.22 2.12 0 0.25 -1.08 0.06 0c0.19,0.38 0.49,0.68 0.9,0.93 0.41,0.21 0.84,0.34 1.33,0.34 0.88,0 1.5,-0.41 1.9,-1.19 0.41,-0.8 0.62,-2.06 0.62,-3.74l0 -1.8c0,-1.33 -0.09,-2.31 -0.24,-3.04l0 0 0.01 -0.03zm-2.36 4.64c0,0.84 -0.04,1.47 -0.1,1.95 -0.06,0.47 -0.19,0.81 -0.34,1 -0.18,0.19 -0.38,0.3 -0.65,0.3 -0.21,0 -0.41,-0.04 -0.57,-0.15 -0.18,-0.1 -0.32,-0.25 -0.43,-0.46l0 -6.47c0.09,-0.3 0.24,-0.56 0.46,-0.77 0.22,-0.19 0.46,-0.3 0.69,-0.3 0.25,0 0.47,0.1 0.6,0.3 0.15,0.22 0.24,0.56 0.3,1.03 0.06,0.49 0.09,1.18 0.09,2.06l0 1.5 -0.01 0 -0.03 0z" inkscape:connector-curvature="0"/>
 </g>
</svg>
